<svg xmlns="http://www.w3.org/2000/svg" width="900" height="900"><path fill="#feead2" d="M0 0h900v900H0z"/><path fill="#d7cea5" d="M900 573c-70-15-140-30-215-53-76-23-156-55-190-115s-20-148-40-220C435 112 381 56 327 0h573Z"/><path fill="#6a9d68" d="M900 382q-69-14-144-35c-50-16-104-37-126-77s-13-99-27-147c-13-48-49-86-85-123h382Z"/><path fill="#00845c" d="M900 191q-34-7-72-18c-25-7-52-18-63-38s-7-49-13-73c-7-25-25-43-43-62h191Z"/><path fill="#d7cea5" d="M0 327c73 15 147 30 213 58q99 44 182 120c55 50 105 109 134 176s36 143 44 219H0Z"/><path fill="#6a9d68" d="M0 518c49 10 98 20 142 39q66 29 121 80c37 33 71 72 90 117s24 95 29 146H0Z"/><path fill="#00845c" d="M0 709q37 6 71 20 33 14 61 40 29 25 44 58 14 34 15 73H0Z"/></svg>
